<svg width="956" height="818" viewBox="0 0 956 818" fill="none" xmlns="http://www.w3.org/2000/svg">
<g opacity="0.3">
<g opacity="0.3">
<path opacity="0.3" d="M951.7 9.7001V814H3.79996V9.7001H951.7ZM954.8 6.6001H0.699951V817.1H954.8V6.6001Z" fill="#C4ECFE"/>
</g>
<g opacity="0.3">
<g opacity="0.3">
<path opacity="0.3" d="M954.8 581.2H0.699951V584.1H954.8V581.2Z" fill="#C4ECFE"/>
</g>
<g opacity="0.3">
<path opacity="0.3" d="M954.8 465.1H0.699951V468H954.8V465.1Z" fill="#C4ECFE"/>
</g>
<g opacity="0.3">
<path opacity="0.3" d="M954.8 581.2H0.699951V584.1H954.8V581.2Z" fill="#C4ECFE"/>
</g>
<g opacity="0.3">
<path opacity="0.3" d="M954.8 697.2H0.699951V700.1H954.8V697.2Z" fill="#C4ECFE"/>
</g>
<g opacity="0.3">
<path opacity="0.3" d="M954.8 349.1H0.699951V352H954.8V349.1Z" fill="#C4ECFE"/>
</g>
<g opacity="0.3">
<path opacity="0.3" d="M954.8 233H0.699951V235.9H954.8V233Z" fill="#C4ECFE"/>
</g>
<g opacity="0.3">
<path opacity="0.3" d="M954.8 117H0.699951V119.9H954.8V117Z" fill="#C4ECFE"/>
</g>
</g>
</g>
<path d="M72.8 817.1L72.7 811.3C72.7 813.2 72.8 815.1 72.8 817.1Z" fill="url(#paint0_linear)"/>
<path d="M882.2 614.4C879.2 614.4 876.7 611.9 876.7 608.9V421.4C876.7 418.4 879.2 415.9 882.2 415.9C885.2 415.9 887.7 418.4 887.7 421.4V608.9C887.7 611.9 885.2 614.4 882.2 614.4Z" fill="#CAE6C4"/>
<path d="M882.2 462.5C881.9 462.5 881.6 462.5 881.3 462.4C878.3 461.9 876.3 459.1 876.8 456.1C879.3 441.3 892.5 430.9 907.5 432C910.5 432.2 912.8 434.9 912.6 437.9C912.4 440.9 909.7 443.2 906.7 443C897.4 442.3 889.2 448.7 887.6 457.9C887.2 460.6 884.8 462.5 882.2 462.5Z" fill="#CAE6C4"/>
<path d="M882.2 462.5C879.6 462.5 877.2 460.6 876.8 457.9C875.3 448.7 867.1 442.3 857.7 443C854.7 443.2 852 441 851.8 437.9C851.6 434.8 853.8 432.2 856.9 432C872 430.9 885.2 441.2 887.6 456.1C888.1 459.1 886.1 461.9 883.1 462.4C882.8 462.5 882.5 462.5 882.2 462.5Z" fill="#CAE6C4"/>
<path d="M882.2 490C881.9 490 881.6 490 881.3 489.9C878.3 489.4 876.3 486.6 876.8 483.6C879.3 468.8 892.5 458.4 907.5 459.5C910.5 459.7 912.8 462.4 912.6 465.4C912.4 468.4 909.7 470.7 906.7 470.5C897.4 469.8 889.2 476.2 887.6 485.4C887.2 488.1 884.8 490 882.2 490Z" fill="#CAE6C4"/>
<path d="M882.2 490C879.6 490 877.2 488.1 876.8 485.4C875.3 476.2 867.1 469.8 857.7 470.5C854.7 470.7 852 468.5 851.8 465.4C851.6 462.3 853.8 459.7 856.9 459.5C872 458.4 885.2 468.7 887.6 483.6C888.1 486.6 886.1 489.4 883.1 489.9C882.8 490 882.5 490 882.2 490Z" fill="#CAE6C4"/>
<path d="M811.6 641C808.6 641 806.1 638.5 806.1 635.5V490.7C806.1 487.7 808.6 485.2 811.6 485.2C814.6 485.2 817.1 487.7 817.1 490.7V635.5C817.1 638.5 814.6 641 811.6 641Z" fill="#CAE6C4"/>
<path d="M811.6 531.8C811.3 531.8 811 531.8 810.7 531.7C807.7 531.2 805.7 528.4 806.2 525.4C808.7 510.6 821.9 500.2 836.9 501.3C839.9 501.5 842.2 504.2 842 507.2C841.8 510.2 839.1 512.5 836.1 512.3C826.8 511.6 818.6 518 817 527.2C816.6 529.9 814.2 531.8 811.6 531.8Z" fill="#CAE6C4"/>
<path d="M811.6 531.8C809 531.8 806.6 529.9 806.2 527.2C804.7 518 796.5 511.6 787.1 512.3C784.1 512.5 781.4 510.3 781.2 507.2C781 504.2 783.2 501.5 786.3 501.3C801.3 500.2 814.6 510.5 817 525.4C817.5 528.4 815.5 531.2 812.5 531.7C812.2 531.8 811.9 531.8 811.6 531.8Z" fill="#CAE6C4"/>
<path d="M811.6 559.4C811.3 559.4 811 559.4 810.7 559.3C807.7 558.8 805.7 556 806.2 553C808.7 538.2 821.9 527.8 836.9 528.9C839.9 529.1 842.2 531.8 842 534.8C841.8 537.8 839.1 540.1 836.1 539.9C826.8 539.2 818.6 545.6 817 554.8C816.6 557.5 814.2 559.4 811.6 559.4Z" fill="#CAE6C4"/>
<path d="M811.6 559.4C809 559.4 806.6 557.5 806.2 554.8C804.7 545.6 796.5 539.2 787.1 539.9C784.1 540.1 781.4 537.9 781.2 534.8C781 531.7 783.2 529.1 786.3 528.9C801.4 527.8 814.6 538.1 817 553C817.5 556 815.5 558.8 812.5 559.3C812.2 559.4 811.9 559.4 811.6 559.4Z" fill="#CAE6C4"/>
<path d="M59.7 748.8C56.7 748.8 54.2 746.3 54.2 743.3V625.2C54.2 622.2 56.7 619.7 59.7 619.7C62.7 619.7 65.2 622.2 65.2 625.2V743.3C65.2 746.3 62.7 748.8 59.7 748.8Z" fill="#CAE6C4"/>
<path d="M59.7 666.3C59.4 666.3 59.1 666.3 58.8 666.2C55.8 665.7 53.8 662.9 54.3 659.9C56.8 645.1 70 634.7 85 635.8C88 636 90.3 638.7 90.1 641.7C89.9 644.7 87.2 647 84.2 646.8C74.9 646.1 66.7 652.5 65.1 661.7C64.7 664.4 62.3 666.3 59.7 666.3Z" fill="#CAE6C4"/>
<path d="M59.7 666.3C57.1 666.3 54.7 664.4 54.3 661.7C52.8 652.5 44.6 646.1 35.2 646.8C32.2 647 29.5 644.8 29.3 641.7C29.1 638.7 31.3 636 34.4 635.8C49.4 634.7 62.7 645 65.1 659.9C65.6 662.9 63.6 665.7 60.6 666.2C60.3 666.3 60 666.3 59.7 666.3Z" fill="#CAE6C4"/>
<path d="M955.1 658.4V746.9C955.1 784.4 924.7 814.9 887.1 814.9H496.5C496.5 814.9 511.1 696 688.3 696C787.8 696 765.7 643.9 831.8 595.4C883 557.8 955.1 595 955.1 658.4Z" fill="url(#paint1_linear)"/>
<path d="M5.09985 812.5H309.1C309.1 749.4 276.1 736.6 240 735.3C208.6 734.1 200.8 674.8 148.2 683C116.4 688 114.4 715.1 86.4999 721.1C61.8999 726.4 5.09985 748.5 5.09985 812.5Z" fill="url(#paint2_linear)"/>
<path d="M291.6 318.2C310.9 286.2 338.5 265.5 373.5 234.1C408.5 202.7 411.3 130.4 417.9 96.3001C421.8 76.3001 456.3 37.1001 430.5 18.6001C430.5 18.6001 398.6 12.5001 368.4 48.3001C356.7 54.2001 345.6 59.4001 329.4 67.6001C281.2 91.7001 295.5 134.9 274.4 157.5C253.4 180.1 86.3001 187.3 48.3001 238.3C-33.7999 348.5 207 458.7 291.6 318.2Z" fill="url(#paint3_linear)"/>
<path d="M627.9 342.1L543.7 331.3C537.8 330.5 532.5 328 528.4 324.2L526.2 322.1L413.7 219.3C398 205 396.9 180.6 411.2 164.9C425.5 149.2 449.9 148.1 465.6 162.4L578.1 265.2L560.6 256.1L641.8 282.5L627.9 342.1Z" fill="url(#paint4_linear)"/>
<path d="M641.8 282.5L670.8 291.9C685.4 296.7 693.4 312.4 688.7 327C684.5 339.9 671.7 347.7 658.7 346L628 342.1L641.8 282.5Z" fill="#FDC068"/>
<path d="M492.5 281.4C490.2 239.1 461.3 242.6 471 213.6C480.7 184.6 465.7 145.5 433.2 147.2C408.2 148.5 406.4 147.6 395.8 148.2C362.4 150 341.2 185.1 352.5 216.6C352.5 216.6 355.4 223.7 355.7 233.3C356 242.9 333.2 258.2 334.8 287.3L492.5 281.4Z" fill="url(#paint5_linear)"/>
<path d="M257.4 803.3L161.7 726.7C156.7 722.7 155.6 715.6 159.2 710.7L168 698.9L228 747.9L265.4 795.4C269.7 800.9 262.9 807.7 257.4 803.3Z" fill="#2B2B2B"/>
<path d="M334.8 287.2C336 309.5 361.1 341.7 400 339.9L431.3 337.5C466.8 335.9 493.6 302.8 492.3 278.8L334.8 287.2Z" fill="url(#paint6_linear)"/>
<path d="M167.9 698.9L225.2 748.8C228.4 745 231.3 741 234.4 737.1C237.4 733.2 240.3 729.2 243.3 725.3L247.7 719.4L252 713.4L260.6 701.4C263.5 697.4 266.3 693.4 269.1 689.3C271.9 685.3 274.7 681.2 277.4 677.2C280.1 673.1 282.9 669.1 285.6 665L293.7 652.7C315.1 619.9 335.4 586.5 355 552.7L358.7 546.4C359.3 545.3 360 544.3 360.5 543.2L362.1 539.9C364.3 535.6 366.4 531.2 368.5 526.8L374.9 513.6L377.4 508.3L381.1 500.4C385.3 491.6 389.2 482.7 393.3 473.8C395.3 469.4 397.2 464.9 399.2 460.4C401.2 455.9 403.1 451.5 405 447C405.1 446.9 405.1 446.7 405.2 446.6C412.8 428.8 419.9 410.7 426.6 392.5C428.4 387.6 430.2 382.7 431.9 377.7C433.4 373.4 434.9 369.1 436.3 364.7L440.8 350.7L442.9 343.6L443.9 340.1L444.9 336.5L424 327.1L392 313L334.8 287.2L298.9 398L277.2 451.6L272.8 462.5L266.3 478.4L260.9 491.8L259.5 495.1C259.1 496.2 258.5 497.3 258 498.4L255 505L167.9 698.9Z" fill="url(#paint7_linear)"/>
<path d="M385.7 302.4L411.5 424.201L418.2 455.701L424.4 485.1C425.2 488.8 426 492.501 426.7 496.201C430.3 512.801 434 529.4 436.3 546.1L475.9 791L550.3 788.3C550.6 783.1 550.5 775.8 550.7 770.6C550.9 765.4 551 760.201 551.1 755L551.3 747.201C551.4 744.6 551.3 742.001 551.3 739.401V723.8V716L551.2 708.201C551.1 703 551.1 697.8 551 692.6L550.6 677L550.1 661.401C548.7 619.801 546.1 578.301 542.8 536.701C541.9 526.301 541.3 515.9 539.6 505.6L537.3 490.1L536.2 482.3L535 474.5L532.5 459L529.8 443.5L528.4 435.8L527 428.1L524.1 412.6C520.1 392 515.6 371.5 510.7 351C505.7 330.5 495.5 302.7 488.8 282.5L417.8 289.8L392.4 299.701L385.7 302.4Z" fill="url(#paint8_linear)"/>
<path d="M609.1 812.6L489.6 812.1C483.3 812.1 477.8 807.1 477 800.8L475.2 785.7L550.8 786.8L609.4 801.1C616.2 802.8 616 812.6 609.1 812.6Z" fill="#2B2B2B"/>
<path d="M445.3 123.1H416C400.8 123.1 388.5 110.8 388.5 95.7001V51.5001C388.5 27.2001 408.1 7.6001 432.4 7.6001C456.7 7.6001 476.3 27.2001 476.3 51.5001V92.0001C476.4 109.2 462.5 123.1 445.3 123.1Z" fill="#FDC068"/>
<path d="M469 69.2002C471.761 69.2002 474 66.9616 474 64.2002C474 61.4388 471.761 59.2002 469 59.2002C466.239 59.2002 464 61.4388 464 64.2002C464 66.9616 466.239 69.2002 469 69.2002Z" fill="#2B2B2B"/>
<path d="M435.5 170.6L458.7 157.5C458.7 157.5 452.3 145.7 426.3 147.1L435.5 170.6Z" fill="#2B2B2B"/>
<path d="M422.3 173.2L384.7 159.4L388.6 75.8999H435.3L439.7 160.4C440.2 169.6 431 176.4 422.3 173.2Z" fill="#FDC068"/>
<path d="M456.8 79.3C456.3 79.3 455.8 79 455.6 78.6C455.2 77.9 455.4 77.1 456.1 76.7L460.1 74.4C460.5 74.1 460.7 73.6 460.8 73.1C460.9 72.5 460.7 72 460.3 71.6L454.1 64.2C453.6 63.6 453.7 62.7 454.3 62.2C454.9 61.7 455.8 61.8 456.3 62.4L462.5 69.8C464.2 71.9 463.9 75 461.8 76.7L461.6 76.8L457.5 79.2C457.3 79.3 457 79.3 456.8 79.3Z" fill="#2B2B2B"/>
<path d="M451.8 95.9001C451.1 95.9001 450.4 95.3001 450.4 94.6001C450.4 93.8001 451 93.2001 451.7 93.1001L461.2 92.6001C462 92.6001 462.6 93.2001 462.7 93.9001C462.8 94.6001 462.1 95.3001 461.4 95.4001L451.8 95.9001Z" fill="#2B2B2B"/>
<path d="M437.8 123.1L418.7 123.2L438.8 142L437.8 123.1Z" fill="#2B2B2B"/>
<path d="M440.5 69.3999C443.261 69.3999 445.5 67.1613 445.5 64.3999C445.5 61.6385 443.261 59.3999 440.5 59.3999C437.739 59.3999 435.5 61.6385 435.5 64.3999C435.5 67.1613 437.739 69.3999 440.5 69.3999Z" fill="#2B2B2B"/>
<path d="M234.3 315.1C269.8 284.7 255.8 270.1 305.1 247C354.4 223.9 363.4 134 388.5 95.7002C403.2 73.3002 456.5 40.7002 443.6 7.4002C443.6 7.4002 418.1 -13.4998 370.7 16.8002C356.8 19.0002 343.8 20.6002 324.6 23.5002C267.4 32.0002 256 90.2002 224.3 108.5C192.5 126.8 126.5 87.9002 63.5001 133.3C-72.7999 231.5 78.8 448.5 234.3 315.1Z" fill="url(#paint9_linear)"/>
<path d="M232.2 116.6H232.1L197.3 113.2C196.5 113.1 195.9 112.4 196 111.6C196.1 110.8 196.8 110.2 197.6 110.3L232.4 113.7C233.2 113.8 233.8 114.5 233.7 115.3C233.6 116 233 116.6 232.2 116.6Z" fill="#2B2B2B"/>
<path d="M376.9 120.6C376.8 120.6 376.8 120.6 376.7 120.6C375.9 120.5 375.3 119.8 375.4 119L377.6 97.9002C377.7 97.1002 378.4 96.5003 379.2 96.6003C380 96.7003 380.6 97.4003 380.5 98.2003L378.3 119.3C378.3 120 377.7 120.6 376.9 120.6Z" fill="#2B2B2B"/>
<path d="M291.6 87.0001L304.8 67.6002C313.5 54.9002 330.8 51.6001 343.5 60.2001C354.7 67.8001 358.6 82.2001 353.4 94.2001L345.9 111.6L291.6 87.0001Z" fill="#FDC068"/>
<path d="M346 111.7L309.2 197.6L280.6 140.9L372.5 154.5C393.6 157.4 408.3 176.7 405.5 197.8C402.6 218.9 383.3 233.6 362.2 230.8L270.3 217.2L266.8 216.7C247 214 233.1 195.8 235.8 176C236.6 170.3 238.7 165 241.7 160.5L291.7 87L346 111.7Z" fill="url(#paint10_linear)"/>
<path d="M447.5 9.40039C447.5 9.40039 453.6 33.8004 476.4 51.5004C476.4 51.5004 478.1 10.8004 447.5 9.40039Z" fill="url(#paint11_linear)"/>
<path d="M678.3 153.7H658.3V417.2H678.3V153.7Z" fill="#FFC7CF"/>
<path d="M678.3 153.7H658.3V231.9H678.3V153.7Z" fill="#2B2B2B"/>
<path d="M707.7 15.8003H628.9L573.2 71.5003V150.3L628.9 206H707.7L763.5 150.3V71.5003L707.7 15.8003Z" fill="#FF4081"/>
<path d="M707.7 213.4H628.9C626.9 213.4 625 212.6 623.7 211.2L568 155.5C566.6 154.1 565.8 152.2 565.8 150.3V71.5004C565.8 69.5004 566.6 67.6004 568 66.3004L623.7 10.6004C625.1 9.20039 627 8.40039 628.9 8.40039H707.7C709.7 8.40039 711.5 9.20039 712.9 10.6004L768.7 66.3004C770.1 67.7004 770.9 69.6004 770.9 71.5004V150.3C770.9 152.3 770.1 154.2 768.7 155.5L712.9 211.2C711.5 212.6 709.7 213.4 707.7 213.4ZM632 198.6H704.7L756.2 147.2V74.6004L704.7 23.2004H632L580.6 74.6004V147.3L632 198.6Z" fill="#FFC7CF"/>
<path d="M698.2 90.9005C698.2 93.8005 697.4 96.8005 695.9 99.8005C694.4 102.8 691.8 106.6 688.2 111.2L682.4 118.7C680.9 120.6 679.7 122.2 678.8 123.4C677.8 124.6 677.1 125.6 676.6 126.4C676.1 127.2 675.7 127.9 675.5 128.5C675.3 129.1 675.2 129.8 675.2 130.4V134C675.2 134.8 674.9 135.4 674.2 135.8C673.5 136.2 672.8 136.4 672.1 136.4H659.2C658.5 136.4 657.9 136.1 657.5 135.6C657 135.1 656.8 134.5 656.8 133.8V130.3C656.8 128.7 656.8 127.1 656.9 125.7C657 124.3 657.2 122.9 657.6 121.6C658 120.3 658.5 119 659.3 117.7C660 116.4 661 114.9 662.2 113.2L668.4 105.1C670.8 101.9 672.4 99.4005 673.2 97.6005C674 95.8005 674.4 93.9005 674.4 92.0005V90.7005C674.4 89.2005 673.9 88.1005 672.9 87.2005C671.9 86.3005 670.3 85.9005 668 85.9005C664.6 85.9005 661.5 86.0005 658.6 86.3005C655.7 86.6005 652.7 86.9005 649.5 87.3005H649.1C647.6 87.3005 646.9 86.4005 646.9 84.6005V73.1005C646.9 72.2005 647 71.4005 647.4 70.9005C647.7 70.4005 648.3 70.0005 649.3 69.7005C652.1 68.8005 655.3 68.2005 659 67.7005C662.7 67.2005 666.4 67.0005 670 67.0005C674.5 67.0005 678.5 67.4005 682 68.1005C685.5 68.8005 688.4 70.0005 690.9 71.7005C693.3 73.4005 695.2 75.6005 696.5 78.3005C697.8 81.0005 698.4 84.4005 698.4 88.5005V90.9005H698.2ZM676.3 163.5C676.3 164.2 676 164.8 675.5 165.2C675 165.7 674.4 165.9 673.7 165.9H658.4C657.7 165.9 657.1 165.7 656.6 165.2C656.1 164.7 655.8 164.1 655.8 163.5V147.2C655.8 146.5 656.1 145.9 656.6 145.4C657.1 144.9 657.7 144.6 658.4 144.6H673.7C674.4 144.6 675 144.9 675.5 145.4C676 145.9 676.3 146.5 676.3 147.2V163.5Z" fill="white"/>
<path d="M679.9 296.9C679.9 296.9 657.3 303.5 655.9 309.3C653.8 318.3 648 343.3 653.1 345.3C658.2 347.3 683.9 335.9 683.9 335.9L679.9 296.9Z" fill="#FDC068"/>
<path d="M412.2 430.7C412 430.7 411.8 430.7 411.7 430.6C410.9 430.3 410.5 429.4 410.8 428.7L434.8 364.3C435.1 363.5 436 363.1 436.7 363.4C437.5 363.7 437.9 364.6 437.6 365.3L413.6 429.7C413.4 430.3 412.8 430.7 412.2 430.7Z" fill="#2B2B2B"/>
<path d="M373 232.6C372.9 232.6 372.9 232.6 372.8 232.6L355.2 230.2C354.4 230.1 353.8 229.3 353.9 228.5C354 227.7 354.8 227.1 355.6 227.2L373.2 229.6C374 229.7 374.6 230.5 374.5 231.3C374.4 232.1 373.7 232.6 373 232.6Z" fill="#2B2B2B"/>
<path d="M491.2 291.1C491.1 291.1 490.9 291.1 490.8 291C490 290.8 489.5 289.9 489.8 289.2C494.9 271.1 484.6 255.8 470.5 234.6L469.2 232.7C468.7 232 468.9 231.1 469.6 230.6C470.3 230.1 471.2 230.3 471.7 231L473 232.9C487.6 254.7 498.2 270.5 492.7 289.9C492.5 290.7 491.9 291.1 491.2 291.1Z" fill="#2B2B2B"/>
<path d="M561.8 263.8C561.1 263.8 560.5 263.3 560.3 262.6C560.1 261.8 560.6 261 561.4 260.8L571.9 258.5C572.7 258.3 573.5 258.8 573.7 259.6C573.9 260.4 573.4 261.2 572.6 261.4L562.1 263.7C562 263.8 561.9 263.8 561.8 263.8Z" fill="#2B2B2B"/>
<path d="M133.1 416.6C135.364 416.6 137.2 414.764 137.2 412.5C137.2 410.236 135.364 408.4 133.1 408.4C130.836 408.4 129 410.236 129 412.5C129 414.764 130.836 416.6 133.1 416.6Z" fill="#BFD9FF"/>
<path d="M840.8 751.4C843.064 751.4 844.9 749.564 844.9 747.3C844.9 745.035 843.064 743.2 840.8 743.2C838.536 743.2 836.7 745.035 836.7 747.3C836.7 749.564 838.536 751.4 840.8 751.4Z" fill="#BFD9FF"/>
<path d="M844.8 82.9998C847.064 82.9998 848.9 81.1642 848.9 78.8998C848.9 76.6354 847.064 74.7998 844.8 74.7998C842.536 74.7998 840.7 76.6354 840.7 78.8998C840.7 81.1642 842.536 82.9998 844.8 82.9998Z" fill="#BFD9FF"/>
<path d="M551.4 199.5C553.664 199.5 555.5 197.664 555.5 195.4C555.5 193.135 553.664 191.3 551.4 191.3C549.136 191.3 547.3 193.135 547.3 195.4C547.3 197.664 549.136 199.5 551.4 199.5Z" fill="#BFD9FF"/>
<path d="M348.3 108.2C350.564 108.2 352.4 106.364 352.4 104.1C352.4 101.836 350.564 100 348.3 100C346.036 100 344.2 101.836 344.2 104.1C344.2 106.364 346.036 108.2 348.3 108.2Z" fill="#BFD9FF"/>
<path d="M665.6 623.3C667.699 623.3 669.4 621.598 669.4 619.5C669.4 617.401 667.699 615.7 665.6 615.7C663.501 615.7 661.8 617.401 661.8 619.5C661.8 621.598 663.501 623.3 665.6 623.3Z" fill="#BFD9FF"/>
<path d="M133.1 664.6C135.199 664.6 136.9 662.899 136.9 660.8C136.9 658.701 135.199 657 133.1 657C131.001 657 129.3 658.701 129.3 660.8C129.3 662.899 131.001 664.6 133.1 664.6Z" fill="#BFD9FF"/>
<path d="M721.6 520L718.7 510.4C761.6 497.5 786.4 459.4 810.5 422.5C835.4 384.3 858.9 348.2 900 346.6L900.4 356.6C864.5 358 843.4 390.4 818.9 427.9C795.1 464.5 768.1 506.1 721.6 520Z" fill="#FFBAC4"/>
<path d="M126.4 587.4C105.9 581.1 89.8001 551.2 74.1001 522.3C61.3001 498.5 46.7 471.6 34.8 471.6V461.6C52.7 461.6 66.7 487.5 82.9 517.5C96.9 543.4 112.8 572.7 129.3 577.8L126.4 587.4Z" fill="#FFBAC4"/>
<defs>
<linearGradient id="paint0_linear" x1="72.75" y1="811.3" x2="72.75" y2="816.797" gradientUnits="userSpaceOnUse">
<stop stop-color="#FFE0C2"/>
<stop offset="0.401" stop-color="#7AAEFC"/>
<stop offset="0.5908" stop-color="#B8C1FC"/>
<stop offset="1" stop-color="#D2D4D4"/>
</linearGradient>
<linearGradient id="paint1_linear" x1="725.8" y1="581.795" x2="725.8" y2="798.429" gradientUnits="userSpaceOnUse">
<stop stop-color="#B9A3FF"/>
<stop offset="0.9958" stop-color="white"/>
</linearGradient>
<linearGradient id="paint2_linear" x1="157.1" y1="676.52" x2="157.1" y2="818.297" gradientUnits="userSpaceOnUse">
<stop stop-color="#9875FF"/>
<stop offset="0.9958" stop-color="white"/>
</linearGradient>
<linearGradient id="paint3_linear" x1="455.767" y1="35.6075" x2="148.868" y2="300.287" gradientUnits="userSpaceOnUse">
<stop offset="0.0286" stop-color="#4527A0"/>
<stop offset="0.401" stop-color="#865EFF"/>
<stop offset="0.5908" stop-color="#D1C1FF"/>
<stop offset="1" stop-color="#CCBBFF"/>
</linearGradient>
<linearGradient id="paint4_linear" x1="521.48" y1="141.5" x2="521.48" y2="269.5" gradientUnits="userSpaceOnUse">
<stop stop-color="#444444"/>
<stop offset="1" stop-color="#5F3EC1"/>
</linearGradient>
<linearGradient id="paint5_linear" x1="413.61" y1="147.146" x2="413.61" y2="263.5" gradientUnits="userSpaceOnUse">
<stop stop-color="#444444"/>
<stop offset="1" stop-color="#5F3EC1"/>
</linearGradient>
<linearGradient id="paint6_linear" x1="413.573" y1="808.27" x2="413.573" y2="280.141" gradientUnits="userSpaceOnUse">
<stop offset="0.4989" stop-color="#FF4081"/>
<stop offset="1" stop-color="#4527A0"/>
</linearGradient>
<linearGradient id="paint7_linear" x1="306.4" y1="808.737" x2="306.4" y2="276.46" gradientUnits="userSpaceOnUse">
<stop stop-color="#F36B7F"/>
<stop offset="0.4092" stop-color="#FF4081"/>
<stop offset="1" stop-color="#4527A0"/>
</linearGradient>
<linearGradient id="paint8_linear" x1="468.522" y1="808.419" x2="468.522" y2="275.778" gradientUnits="userSpaceOnUse">
<stop stop-color="#F36B7F"/>
<stop offset="0.4092" stop-color="#FF4081"/>
<stop offset="1" stop-color="#4527A0"/>
</linearGradient>
<linearGradient id="paint9_linear" x1="521.887" y1="22.9616" x2="161.894" y2="219.223" gradientUnits="userSpaceOnUse">
<stop stop-color="#FFE0C2"/>
<stop offset="0.401" stop-color="#D1C1FF"/>
<stop offset="0.5908" stop-color="#A689FF"/>
<stop offset="1" stop-color="#835AFF"/>
</linearGradient>
<linearGradient id="paint10_linear" x1="320.653" y1="87" x2="320.653" y2="268.5" gradientUnits="userSpaceOnUse">
<stop offset="0.400598" stop-color="#444444"/>
<stop offset="1" stop-color="#5F3EC1"/>
</linearGradient>
<linearGradient id="paint11_linear" x1="372.092" y1="76.7427" x2="506.004" y2="7.75502" gradientUnits="userSpaceOnUse">
<stop stop-color="#FFE0C2"/>
<stop offset="0.401" stop-color="#7AAEFC"/>
<stop offset="0.5908" stop-color="#B8C1FC"/>
<stop offset="1" stop-color="#D2D4D4"/>
</linearGradient>
</defs>
</svg>